<svg width="25" height="23" viewBox="0 0 25 23" fill="none" xmlns="http://www.w3.org/2000/svg">
<g clip-path="url(#clip0_160_228)">
<path d="M21.4507 9.30153C21.4507 15.8126 12.2576 21.3935 12.2576 21.3935C12.2576 21.3935 3.06445 15.8126 3.06445 9.30153C3.06445 7.08131 4.03301 4.95202 5.75706 3.38209C7.4811 1.81216 9.81941 0.930176 12.2576 0.930176C14.6957 0.930176 17.0341 1.81216 18.7581 3.38209C20.4821 4.95202 21.4507 7.08131 21.4507 9.30153Z" stroke="black" stroke-linecap="round" stroke-linejoin="round"/>
<path d="M12.2575 12.092C13.9499 12.092 15.3219 10.8427 15.3219 9.30156C15.3219 7.76044 13.9499 6.51111 12.2575 6.51111C10.5651 6.51111 9.19312 7.76044 9.19312 9.30156C9.19312 10.8427 10.5651 12.092 12.2575 12.092Z" stroke="black" stroke-linecap="round" stroke-linejoin="round"/>
</g>
<defs>
<clipPath id="clip0_160_228">
<rect width="24.515" height="22.3236" fill="white"/>
</clipPath>
</defs>
</svg>
