<svg xmlns="http://www.w3.org/2000/svg" width="45" height="45" viewBox="0 0 45 45" fill="none">
<path d="M39.6489 16.08L25.4926 4.57688C23.7582 3.16875 21.242 3.16875 19.5076 4.57688L5.35324 16.0781C4.85637 16.4813 4.57324 17.0775 4.57324 17.715V39.3581C4.57324 40.5206 5.52012 41.4769 6.68262 41.4769H16.1739C17.3364 41.4769 18.2832 40.5206 18.2832 39.3581V25.6594H26.7189V39.3581C26.7189 40.5206 27.6657 41.4769 28.8282 41.4769H38.3195C39.482 41.4769 40.4289 40.5206 40.4289 39.3581V17.715C40.427 17.0775 40.1439 16.4813 39.6489 16.08ZM38.3176 39.3694H28.8264V25.65C28.8264 24.4875 27.8795 23.5519 26.717 23.5519H18.2814C17.1189 23.5519 16.172 24.4875 16.172 25.65V39.3694H6.68262V17.715L20.8389 6.21375C21.8007 5.43 23.2014 5.43188 24.1632 6.21375L38.3195 17.715L38.3176 39.3694Z" fill="black" fill-opacity="0.74"/>
</svg>