<svg width="47" height="48" viewBox="0 0 47 48" fill="none" xmlns="http://www.w3.org/2000/svg">
<path d="M23.5 6C33.2341 6 41.125 14.0589 41.125 24C41.125 33.9412 33.2341 42 23.5 42C20.152 42 16.9385 41.0436 14.1603 39.2676C13.0287 38.5442 11.9805 37.6914 11.0365 36.7272C10.0911 35.7616 9.2551 34.6892 8.54619 33.5314C6.80991 30.6956 5.875 27.4164 5.875 24C5.875 23.4516 5.89905 22.9062 5.94687 22.3646C6.0197 21.5394 6.73367 20.931 7.54156 21.0052C8.34945 21.0796 8.94533 21.8088 8.8725 22.634C8.83259 23.086 8.8125 23.5416 8.8125 24C8.8125 26.8498 9.59049 29.5786 11.0368 31.9408C11.6279 32.906 12.3251 33.8004 13.1138 34.606C13.9012 35.4102 14.7754 36.1216 15.7189 36.7246C18.0332 38.2042 20.7072 39 23.5 39C31.6116 39 38.1875 32.2842 38.1875 24C38.1875 15.7157 31.6116 9 23.5 9C18.8053 9 14.4907 11.2656 11.7456 15.0039L17.1436 15.0042C17.9548 15.0042 18.6124 15.6758 18.6124 16.5042C18.6124 17.2636 18.0598 17.8912 17.3429 17.9905L17.1436 18.0042H8.32292C7.57934 18.0042 6.96483 17.4399 6.86758 16.7077L6.85417 16.5042V7.50418C6.85417 6.67576 7.51176 6.00418 8.32292 6.00418C9.0665 6.00418 9.681 6.5685 9.77825 7.30064L9.79167 7.50418L9.78971 12.687C13.0932 8.51206 18.0877 6 23.5 6ZM22.0312 14C22.7744 14 23.3894 14.5647 23.4865 15.2965L23.5 15.5V24H27.9062C28.717 24 29.375 24.672 29.375 25.5C29.375 26.259 28.8222 26.887 28.1054 26.9862L27.9062 27H22.0312C21.2881 27 20.6731 26.4354 20.576 25.7034L20.5625 25.5V15.5C20.5625 14.672 21.2205 14 22.0312 14Z" fill="#212121" fill-opacity="0.77"/>
</svg>
